<svg width="74" height="20" viewBox="0 0 74 20" fill="none" xmlns="http://www.w3.org/2000/svg">
<g id="text wrapper">
<g id="&#208;&#175;&#208;&#189;&#208;&#180;&#208;&#181;&#208;&#186;&#209;&#129; ID">
<path d="M1.2067 7.12802C1.2067 6.52002 1.31337 5.99201 1.5267 5.54401C1.74003 5.08535 2.0387 4.71202 2.4227 4.42402C2.8067 4.12535 3.26537 3.90135 3.7987 3.75202C4.3427 3.60268 4.94537 3.52802 5.6067 3.52802H9.3347V15H7.3827V10.584H5.6067L2.6787 15H0.422699L3.6547 10.296C2.8227 10.0933 2.20403 9.72535 1.7987 9.19201C1.40403 8.64801 1.2067 7.96001 1.2067 7.12802ZM7.3827 8.96802V5.20801H5.5907C4.86537 5.20801 4.28403 5.35201 3.8467 5.64001C3.42003 5.91735 3.2067 6.39735 3.2067 7.08001C3.2067 7.75202 3.3987 8.23735 3.7827 8.53601C4.1667 8.82401 4.7107 8.96802 5.4147 8.96802H7.3827Z" fill="white"/>
<path d="M16.9547 11.496H13.4507V15H11.5947V6.69601H13.4507V9.99201H16.9547V6.69601H18.8107V15H16.9547V11.496Z" fill="white"/>
<path d="M20.6676 13.496C20.9129 13.2827 21.1049 12.9893 21.2436 12.616C21.3929 12.2427 21.5102 11.7787 21.5956 11.224C21.6809 10.6587 21.7449 10.0027 21.7876 9.25601C21.8302 8.50935 21.8676 7.65601 21.8996 6.69601H27.9796V13.496H29.2276V17.368H27.6116L27.4676 15H21.7396L21.5956 17.368H19.9636V13.496H20.6676ZM26.1236 13.496V8.20002H23.4996C23.4462 9.51201 23.3556 10.6 23.2276 11.464C23.1102 12.3173 22.9129 12.9947 22.6356 13.496H26.1236Z" fill="white"/>
<path d="M37.3825 14.392C37.2651 14.4667 37.1211 14.552 36.9505 14.648C36.7798 14.7333 36.5771 14.8133 36.3424 14.888C36.1078 14.9627 35.8358 15.0267 35.5264 15.08C35.2171 15.1333 34.8651 15.16 34.4704 15.16C32.9451 15.16 31.8038 14.7813 31.0464 14.024C30.2998 13.2667 29.9264 12.2053 29.9264 10.84C29.9264 10.168 30.0278 9.56535 30.2304 9.03201C30.4331 8.49868 30.7158 8.05068 31.0784 7.68801C31.4411 7.31468 31.8731 7.03201 32.3745 6.84001C32.8758 6.63735 33.4251 6.53601 34.0224 6.53601C34.6411 6.53601 35.1958 6.63735 35.6865 6.84001C36.1878 7.04268 36.5984 7.34668 36.9184 7.75202C37.2384 8.15735 37.4571 8.65868 37.5745 9.25601C37.7024 9.85335 37.7078 10.552 37.5905 11.352H31.8464C31.9211 12.1093 32.1718 12.68 32.5984 13.064C33.0251 13.4373 33.6918 13.624 34.5984 13.624C35.2598 13.624 35.8091 13.544 36.2464 13.384C36.6945 13.2133 37.0731 13.0373 37.3825 12.856V14.392ZM34.0224 8.00801C33.4785 8.00801 33.0198 8.17335 32.6465 8.50401C32.2731 8.83468 32.0278 9.32535 31.9104 9.97602H35.8144C35.8358 9.30402 35.6865 8.80802 35.3665 8.48802C35.0465 8.16802 34.5984 8.00801 34.0224 8.00801Z" fill="white"/>
<path d="M41.8895 11.624H41.1694V15H39.3134V6.69601H41.1694V10.12H41.9534L44.5934 6.69601H46.5454L43.4095 10.696L46.6735 15H44.4814L41.8895 11.624Z" fill="white"/>
<path d="M51.3406 15.16C50.6686 15.16 50.0659 15.064 49.5326 14.872C48.9992 14.6693 48.5459 14.3867 48.1726 14.024C47.7992 13.6507 47.5112 13.1973 47.3086 12.664C47.1059 12.1307 47.0046 11.5227 47.0046 10.84C47.0046 10.168 47.1059 9.56535 47.3086 9.03201C47.5112 8.49868 47.7992 8.05068 48.1726 7.68801C48.5459 7.31468 49.0046 7.03201 49.5486 6.84001C50.0926 6.63735 50.7006 6.53601 51.3726 6.53601C51.9486 6.53601 52.4499 6.60001 52.8766 6.72801C53.3139 6.85602 53.6606 7.01602 53.9166 7.20801V8.74401C53.5859 8.53068 53.2232 8.36535 52.8286 8.24801C52.4446 8.13068 51.9966 8.07201 51.4846 8.07201C49.7672 8.07201 48.9086 8.99468 48.9086 10.84C48.9086 12.6853 49.7512 13.608 51.4366 13.608C51.9806 13.608 52.4446 13.5493 52.8286 13.432C53.2232 13.304 53.5859 13.144 53.9166 12.952V14.488C53.6392 14.6693 53.2926 14.8293 52.8766 14.968C52.4606 15.096 51.9486 15.16 51.3406 15.16Z" fill="white"/>
<path d="M61.2696 3.52802V15H59.3336V3.52802H61.2696Z" fill="white"/>
<path d="M63.7242 3.52802H67.5962C68.4069 3.52802 69.1589 3.61868 69.8522 3.80001C70.5562 3.98135 71.1642 4.28001 71.6762 4.69601C72.1989 5.11201 72.6042 5.66135 72.8922 6.34402C73.1909 7.02668 73.3402 7.86935 73.3402 8.87201C73.3402 9.88535 73.1909 10.776 72.8922 11.544C72.6042 12.3013 72.1935 12.936 71.6602 13.448C71.1375 13.96 70.5135 14.3493 69.7882 14.616C69.0735 14.872 68.2895 15 67.4362 15H63.7242V3.52802ZM65.6602 5.20801V13.336H67.5002C68.0655 13.336 68.5775 13.2507 69.0362 13.08C69.5055 12.9093 69.9055 12.648 70.2362 12.296C70.5775 11.944 70.8389 11.496 71.0202 10.952C71.2122 10.3973 71.3082 9.74135 71.3082 8.98401C71.3082 8.23735 71.2175 7.62401 71.0362 7.14401C70.8549 6.65335 70.5989 6.26402 70.2682 5.97602C69.9482 5.68801 69.5642 5.49068 69.1162 5.38402C68.6682 5.26668 68.1829 5.20801 67.6602 5.20801H65.6602Z" fill="white"/>
</g>
</g>
</svg>
